<svg xmlns="http://www.w3.org/2000/svg" width="139" height="32" viewBox="0 0 139 32" fill="none"><g clip-path="url(#clip0_2856_17257)"><path fill-rule="evenodd" clip-rule="evenodd" d="M107.709 22.0669C111.271 22.0669 114.169 19.2266 114.169 15.7354C114.169 12.244 111.271 9.40365 107.709 9.40365C104.146 9.40365 101.248 12.244 101.248 15.7354C101.248 19.2266 104.146 22.0669 107.709 22.0669ZM114.169 0H114.345H117.23V25.088H114.169V22.583C112.403 24.1876 110.125 25.0666 107.709 25.0666C102.459 25.0666 98.1872 20.8805 98.1872 15.7354C98.1872 10.5898 102.459 6.40397 107.709 6.40397C110.125 6.40397 112.403 7.28282 114.169 8.88749V0ZM44.2312 21.9564C47.7936 21.9564 50.6919 19.1161 50.6919 15.6248C50.6919 12.1336 47.7936 9.29325 44.2312 9.29325C40.6686 9.29325 37.7703 12.1336 37.7703 15.6248C37.7703 19.1161 40.6686 21.9564 44.2312 21.9564ZM37.7703 8.77728C39.5368 7.17261 41.8151 6.29363 44.2312 6.29363C49.4813 6.29363 53.7527 10.4796 53.7527 15.6248C53.7527 20.77 49.4813 24.956 44.2312 24.956C41.8151 24.956 39.5368 24.0772 37.7703 22.4724V31.36H34.7095V6.272H37.7703V8.77728ZM59.5929 14.1679C60.2818 11.3324 62.8485 9.29645 65.7764 9.29645C68.666 9.29645 71.0864 11.289 71.7316 14.1679H59.5929ZM65.7764 6.272C60.6048 6.272 56.3977 10.4926 56.3977 15.68C56.3977 20.8676 60.6048 25.088 65.7764 25.088C68.6724 25.088 71.3303 24.0004 73.0698 22.1041L73.9735 21.1183L74.09 20.9912L73.9632 20.8739L71.9984 19.0609L71.8717 18.9437L71.7546 19.071L70.8509 20.0568C69.6983 21.3134 67.8013 22.0637 65.7764 22.0637C62.8485 22.0637 60.2819 20.0278 59.5929 17.1921H74.9117V15.68C74.9117 10.4045 70.8989 6.272 65.7764 6.272ZM135.328 15.6801C135.328 19.2 132.43 22.0637 128.868 22.0637C125.305 22.0637 122.407 19.2 122.407 15.6801C122.407 12.16 125.305 9.29632 128.868 9.29632C132.43 9.29632 135.328 12.16 135.328 15.6801ZM128.868 6.272C123.618 6.272 119.346 10.4924 119.346 15.6801C119.346 20.8676 123.618 25.088 128.868 25.088C134.118 25.088 138.389 20.8676 138.389 15.6801C138.389 10.4924 134.118 6.272 128.868 6.272ZM86.2845 6.272C84.1578 6.272 82.1316 7.08192 80.5367 8.56115V6.272H77.5568V25.088H80.5367V15.4859C80.5367 12.0601 83.1152 9.27283 86.2845 9.27283C89.4544 9.27283 92.0336 12.0601 92.0336 15.4859V25.088H95.0128V15.4859C95.0128 10.4054 91.0973 6.272 86.2845 6.272Z" fill="#717680"></path><path fill-rule="evenodd" clip-rule="evenodd" d="M0.149414 17.9198H14.5494V31.9998L28.9494 17.9198V3.83984H14.5494L0.149414 17.9198Z" fill="#717680"></path></g><defs><clipPath id="clip0_2856_17257"><rect width="138.24" height="32" fill="white" transform="translate(0.149414)"></rect></clipPath></defs></svg>