<svg xmlns="http://www.w3.org/2000/svg" width="137" height="32" viewBox="0 0 137 32" fill="none"><g clip-path="url(#clip0_2856_17258)"><path d="M11.1982 17.2253V21.0022C14.08 20.9988 16.8428 19.8876 18.8805 17.9124C20.9182 15.9371 22.0645 13.2592 22.0681 10.4658H18.1716C18.1694 12.2578 17.4339 13.9759 16.1267 15.243C14.8194 16.5102 13.047 17.223 11.1982 17.2253Z" fill="#717680"></path><path d="M11.1972 27.6294C9.36179 27.6294 7.60155 26.9227 6.3037 25.6646C5.00585 24.4066 4.27673 22.7003 4.27673 20.9212C4.27673 19.142 5.00585 17.4358 6.3037 16.1777C7.60155 14.9197 9.36179 14.2129 11.1972 14.2129V10.4639C9.7799 10.4619 8.3761 10.7306 7.0659 11.2545C5.7557 11.7784 4.56479 12.5474 3.56117 13.5174C2.55755 14.4875 1.76087 15.6397 1.21661 16.9082C0.672361 18.1767 0.391196 19.5367 0.389171 20.9105C0.387146 22.2843 0.664302 23.6451 1.20481 24.9152C1.74533 26.1851 2.53861 27.3395 3.53937 28.3124C4.54012 29.2852 5.72876 30.0575 7.03741 30.585C8.34606 31.1125 9.74908 31.3851 11.1664 31.3871H11.1972V27.6294Z" fill="#717680"></path><path d="M11.1982 27.6295V31.3786C14.0606 31.3786 16.8058 30.2764 18.8298 28.3145C20.8538 26.3525 21.9909 23.6916 21.9909 20.917H18.1188C18.1177 22.6961 17.3883 24.4022 16.0908 25.6607C14.7934 26.9191 13.0338 27.6272 11.1982 27.6295Z" fill="#717680"></path><path d="M11.1982 6.71251V10.4616C14.0606 10.4616 16.8058 9.35941 18.8298 7.39747C20.8538 5.43554 21.9909 2.77459 21.9909 0H18.1188C18.1177 1.77918 17.3883 3.48523 16.0908 4.7437C14.7934 6.00217 13.0338 6.71024 11.1982 6.71251Z" fill="#717680"></path><path d="M22.0542 6.71251V10.4616C24.9166 10.4616 27.6617 9.35941 29.6857 7.39747C31.7098 5.43554 32.8468 2.77459 32.8468 0H28.9769C28.9757 1.77955 28.246 3.48592 26.9481 4.74445C25.6502 6.00298 23.8901 6.7108 22.0542 6.71251Z" fill="#717680"></path><path d="M50.8696 15.6649H52.863L53.3321 16.6854C53.5812 16.4645 53.8571 16.2738 54.1537 16.1175C54.4627 15.9642 54.7838 15.835 55.114 15.7311C55.5236 15.6059 55.9511 15.5446 56.3805 15.5496C57.044 15.5459 57.7005 15.6806 58.3056 15.9446C58.9125 16.207 59.4586 16.5853 59.9112 17.0569C60.3819 17.5514 60.7551 18.1252 61.0125 18.75C61.5575 20.1243 61.5575 21.6457 61.0125 23.02C60.7557 23.6451 60.3824 24.219 59.9112 24.7131C59.4585 25.1851 58.9124 25.5642 58.3056 25.8276C57.701 26.0909 57.0455 26.2263 56.3827 26.2247C55.9816 26.232 55.5819 26.1787 55.1977 26.0667C54.896 25.9735 54.6015 25.8593 54.3167 25.7251C54.046 25.58 53.7938 25.4044 53.5656 25.2021V29.7475H50.8696V15.6649ZM56.0281 23.7331C56.3864 23.7413 56.7426 23.6768 57.0738 23.5436C57.4049 23.4106 57.7036 23.2118 57.951 22.9602C58.4693 22.445 58.7277 21.7554 58.7262 20.8914C58.7449 20.514 58.686 20.1367 58.5529 19.7815C58.4199 19.4263 58.2152 19.1004 57.951 18.8226C57.6988 18.5781 57.3993 18.384 57.0698 18.2518C56.7402 18.1194 56.387 18.0512 56.0303 18.0512C55.6736 18.0512 55.3203 18.1194 54.9908 18.2518C54.6613 18.384 54.3618 18.5781 54.1096 18.8226C53.5943 19.3392 53.3365 20.0288 53.3365 20.8914C53.3365 21.754 53.5943 22.4436 54.1096 22.9602C54.3569 23.2118 54.6557 23.4106 54.9869 23.5436C55.318 23.6768 55.6741 23.7413 56.0325 23.7331H56.0281Z" fill="#717680"></path><path d="M67.8707 26.2331C67.3689 26.2389 66.8707 26.1505 66.4037 25.9727C65.9673 25.8036 65.5748 25.5433 65.254 25.2105C64.9275 24.867 64.6732 24.4653 64.5051 24.0276C64.3174 23.5329 64.2255 23.0089 64.2342 22.4819V18.0495H62.5933V15.8911H63.2959C64.1564 15.8911 64.5866 15.474 64.5866 14.6399V13.1689H66.9324V15.6712H69.2759V18.056H66.9324V22.3751C66.9176 22.5548 66.9394 22.7356 66.9968 22.9071C67.0541 23.0787 67.1458 23.2376 67.2664 23.3748C67.3871 23.5119 67.5345 23.6248 67.7001 23.7067C67.8658 23.7887 68.0465 23.8383 68.2318 23.8526C68.3052 23.8587 68.3789 23.8587 68.4521 23.8526C68.5533 23.8576 68.6548 23.8576 68.7561 23.8526C68.8303 23.8468 68.904 23.8354 68.9763 23.8184C69.041 23.802 69.1037 23.7791 69.1635 23.7501V26.0239C69.0428 26.0731 68.9174 26.111 68.7891 26.137C68.4892 26.2108 68.18 26.2432 67.8707 26.2331Z" fill="#717680"></path><path d="M72.9111 14.4137C72.5483 14.4226 72.1936 14.3087 71.9081 14.0916C71.6225 13.8746 71.4239 13.5679 71.3462 13.2242C71.2686 12.8806 71.3168 12.5215 71.4827 12.2086C71.6485 11.8957 71.9216 11.6486 72.2551 11.5097C72.5885 11.3708 72.9615 11.3488 73.3098 11.4475C73.6581 11.5462 73.9601 11.7594 74.1639 12.0505C74.3677 12.3416 74.4605 12.6923 74.4264 13.0426C74.3924 13.3928 74.2335 13.7206 73.9771 13.9696C73.8402 14.1103 73.675 14.2223 73.4916 14.2987C73.3082 14.3751 73.1107 14.4142 72.9111 14.4137ZM71.5037 15.6648H74.1996V26.1264H71.5037V15.6648Z" fill="#717680"></path><path d="M76.7769 15.6644H78.7702L79.2393 16.6849C79.4604 16.4713 79.704 16.281 79.9662 16.1169C80.2207 15.9647 80.4891 15.8353 80.7679 15.7306C81.1048 15.6062 81.4627 15.5446 81.823 15.5491C82.3016 15.5373 82.7785 15.6096 83.2304 15.7626C83.5682 15.8817 83.8905 16.0386 84.1908 16.2301C84.4598 16.4136 84.691 16.6447 84.8713 16.9112C85.1289 16.6486 85.4203 16.4197 85.7395 16.2301C86.0603 16.0448 86.398 15.8884 86.7483 15.7626C87.1609 15.6163 87.5972 15.5439 88.0367 15.5491C89.2106 15.5491 90.1462 15.9141 90.851 16.64C91.5559 17.3659 91.9062 18.4442 91.9062 19.8682V26.1195H89.2064V20.0966C89.2359 19.551 89.0464 19.0155 88.6776 18.6021C88.5378 18.4452 88.3677 18.3165 88.1765 18.2235C87.9862 18.1303 87.7782 18.0747 87.5643 18.0596C87.3513 18.0445 87.1374 18.0704 86.9344 18.1356C86.7315 18.2009 86.5437 18.3042 86.382 18.4399C86.323 18.4907 86.2675 18.5449 86.2153 18.6021C85.8464 19.0152 85.6569 19.5511 85.6889 20.0966V26.1195H82.9904V20.0966C83.0217 19.5511 82.8329 19.0152 82.4639 18.6021C82.3242 18.4452 82.1539 18.3164 81.9627 18.2233C81.7716 18.1301 81.5634 18.0745 81.35 18.0594C81.1367 18.0443 80.9223 18.0702 80.7193 18.1355C80.5162 18.2007 80.3284 18.3042 80.1667 18.4399C80.1078 18.4901 80.0526 18.5444 80.0014 18.6021C79.6328 19.0155 79.4434 19.551 79.4729 20.0966V26.1195H76.7769V15.6644Z" fill="#717680"></path><path d="M95.7727 14.4129C95.4089 14.4222 95.0527 14.3084 94.7664 14.0908C94.4792 13.8732 94.2796 13.5657 94.2022 13.2209C94.1239 12.8763 94.1719 12.516 94.3386 12.202C94.5045 11.8881 94.779 11.6401 95.1133 11.5008C95.4476 11.3614 95.8215 11.3394 96.171 11.4385C96.5205 11.5377 96.8236 11.7516 97.0274 12.0438C97.2321 12.3359 97.3247 12.6879 97.2902 13.0392C97.2556 13.3905 97.0965 13.7193 96.8388 13.9688C96.7015 14.1095 96.5365 14.2215 96.3529 14.2979C96.1702 14.3743 95.9723 14.4134 95.7727 14.4129ZM94.3655 15.6641H97.0679V26.1256H94.3655V15.6641Z" fill="#717680"></path><path d="M99.0498 23.959L103.739 18.1646H99.0498V15.6646H107.14V17.823L102.455 23.6303H107.378V26.1304H99.0498V23.959Z" fill="#717680"></path><path d="M114.183 26.2334C113.468 26.236 112.761 26.0904 112.108 25.8064C111.468 25.5329 110.887 25.143 110.397 24.6577C109.901 24.1686 109.503 23.5945 109.223 22.9647C108.937 22.3064 108.791 21.5994 108.791 20.8852C108.791 20.171 108.937 19.464 109.223 18.8057C109.503 18.1759 109.901 17.6018 110.397 17.1126C110.887 16.628 111.468 16.2382 112.108 15.964C112.749 15.6928 113.44 15.55 114.139 15.5441C114.838 15.5383 115.531 15.6694 116.177 15.9298C116.793 16.1836 117.351 16.5546 117.817 17.0208C118.299 17.5099 118.677 18.0849 118.932 18.7139C119.212 19.4054 119.351 20.1426 119.341 20.8852C119.342 21.003 119.335 21.1206 119.319 21.2374C119.302 21.3506 119.287 21.4617 119.271 21.5684C119.255 21.6752 119.24 21.8032 119.225 21.9078H111.721C111.837 22.4111 112.117 22.865 112.518 23.2038C112.987 23.5733 113.58 23.7598 114.183 23.7269C114.488 23.7331 114.793 23.695 115.086 23.6138C115.304 23.5478 115.513 23.456 115.708 23.3404C115.884 23.2277 116.043 23.0894 116.177 22.9306H118.992C118.835 23.3523 118.618 23.7505 118.346 24.1133C118.051 24.5179 117.695 24.8776 117.291 25.1808C116.862 25.4987 116.388 25.7554 115.884 25.943C115.34 26.1404 114.764 26.2389 114.183 26.2334ZM116.763 20.0974C116.651 19.5135 116.332 18.9859 115.86 18.6062C115.389 18.2265 114.796 18.0186 114.183 18.0186C113.57 18.0186 112.977 18.2265 112.506 18.6062C112.035 18.9859 111.716 19.5135 111.604 20.0974H116.763Z" fill="#717680"></path><path d="M121.333 11.7998H124.029V26.1194H121.333V11.7998Z" fill="#717680"></path><path d="M128.125 29.8709C128.001 29.8709 127.88 29.8667 127.761 29.8582C127.662 29.8531 127.565 29.8416 127.468 29.824C127.373 29.8128 127.278 29.7899 127.188 29.7557V27.5972C127.677 27.6284 128.163 27.4916 128.558 27.2107C128.884 26.9484 129.138 26.6126 129.299 26.2329L129.532 25.665L125.428 15.6646H128.243L130.94 22.4816L133.411 15.6646H136.226C135.459 17.5733 134.763 19.3004 134.137 20.8462C133.871 21.5123 133.609 22.1657 133.352 22.7998C133.094 23.4338 132.865 24.0167 132.659 24.5398C132.455 25.0629 132.285 25.4984 132.144 25.8464C132.003 26.1944 131.924 26.3994 131.886 26.4614C131.66 27.0032 131.398 27.5303 131.1 28.0391C130.877 28.4288 130.597 28.7848 130.268 29.096C129.993 29.3557 129.667 29.5571 129.307 29.6873C128.927 29.8154 128.527 29.8775 128.125 29.8709Z" fill="#717680"></path><path d="M40.883 10.4639C39.2746 10.4639 37.7023 10.9262 36.3651 11.7923C35.0278 12.6584 33.9855 13.8895 33.37 15.3298C32.7545 16.7701 32.5934 18.3551 32.9072 19.8842C33.221 21.4132 33.9956 22.8177 35.1328 23.9201C36.2701 25.0225 37.719 25.7733 39.2964 26.0773C40.874 26.3815 42.509 26.2255 43.9949 25.6288C45.4808 25.0322 46.7508 24.0219 47.6444 22.7256C48.538 21.4293 49.0148 19.9054 49.0148 18.3463C49.0152 17.3111 48.805 16.286 48.3965 15.3296C47.9879 14.373 47.3889 13.504 46.6337 12.772C45.8786 12.04 44.982 11.4593 43.9952 11.0633C43.0085 10.6672 41.9509 10.4635 40.883 10.4639ZM40.883 23.4874C39.8315 23.4997 38.8001 23.2092 37.9191 22.6528C37.0382 22.0965 36.3473 21.2992 35.9341 20.362C35.5209 19.4247 35.4038 18.3898 35.5978 17.3881C35.7918 16.3863 36.2881 15.4629 37.0238 14.7348C37.7596 14.0067 38.7017 13.5066 39.7309 13.2977C40.76 13.089 41.83 13.1808 42.8052 13.5618C43.7805 13.9429 44.6171 14.5957 45.2093 15.438C45.8014 16.2802 46.1225 17.2738 46.1317 18.293V18.3527C46.1364 19.7084 45.5866 21.0106 44.6029 21.9743C43.6191 22.9379 42.2814 23.4842 40.883 23.4938V23.4874Z" fill="#717680"></path></g><defs><clipPath id="clip0_2856_17258"><rect width="136.421" height="32" fill="white" transform="translate(0.38916)"></rect></clipPath></defs></svg>