<svg xmlns="http://www.w3.org/2000/svg" width="108" height="32" viewBox="0 0 108 32" fill="none"><g clip-path="url(#clip0_2856_17256)"><path d="M32.4931 14.3253H22.7416L31.1864 9.45067L29.5118 6.54933L21.0659 11.424L25.9406 2.98133L23.0392 1.30667L18.1635 9.7472V0H14.812V9.74827L9.93629 1.30667L7.03389 2.98133L11.9086 11.4219L3.46482 6.54933L1.78909 9.45067L10.2339 14.3253H0.482422V17.6757H10.2328L1.78909 22.5504L3.46376 25.4517L11.9096 20.5771L7.03389 29.0197L9.93522 30.6944L14.812 22.2528V32H18.1635V22.0437L23.1288 30.6411L25.8499 29.0709L20.8835 20.4715L29.5096 25.4507L31.1854 22.5493L22.7416 17.6747H32.492V14.3253H32.4931ZM16.4878 20.5547C15.8895 20.5548 15.297 20.437 14.7443 20.2081C14.1915 19.9792 13.6892 19.6437 13.2662 19.2207C12.8432 18.7978 12.5075 18.2956 12.2785 17.7428C12.0495 17.1901 11.9316 16.5978 11.9315 15.9995C11.9314 15.4012 12.0491 14.8087 12.278 14.256C12.507 13.7033 12.8424 13.201 13.2655 12.7779C13.6884 12.3549 14.1906 12.0192 14.7433 11.7902C15.2961 11.5612 15.8884 11.4433 16.4867 11.4432C17.6949 11.4431 18.8537 11.9229 19.7082 12.7772C20.5627 13.6315 21.0428 14.7902 21.043 15.9984C21.0431 17.2066 20.5633 18.3654 19.709 19.2199C18.8547 20.0745 17.696 20.5546 16.4878 20.5547Z" fill="#717680"></path><path d="M41.1318 27.705V4.2959H45.4284V27.705H41.1318ZM82.3404 11.7967H86.4428V13.738C87.3153 12.186 89.3516 11.3444 91.0956 11.3444C93.2609 11.3444 95.0049 12.2831 95.8124 13.9951C97.071 12.0538 98.7521 11.3444 100.852 11.3444C103.792 11.3444 106.602 13.1226 106.602 17.3903V27.705H102.435V18.2639C102.435 16.5498 101.595 15.2559 99.6236 15.2559C97.7814 15.2559 96.6828 16.6799 96.6828 18.394V27.706H92.4204V18.2639C92.4204 16.5498 91.5478 15.2559 89.6086 15.2559C87.7345 15.2559 86.6358 16.6479 86.6358 18.394V27.706H82.3404V11.7967ZM55.1382 28.1658C50.2977 28.1658 46.7926 24.5743 46.7926 19.7508C46.7926 15.0042 50.287 11.3284 55.1382 11.3284C60.0129 11.3284 63.4838 15.0383 63.4838 19.7508C63.4838 24.5402 59.9766 28.1658 55.1382 28.1658ZM55.1382 15.2218C53.9376 15.2235 52.7867 15.7013 51.9379 16.5507C51.0893 17.4 50.6122 18.5513 50.6113 19.7519C50.6122 20.9525 51.0893 22.1038 51.9379 22.9531C52.7867 23.8025 53.9376 24.2803 55.1382 24.282C56.3387 24.28 57.4894 23.802 58.3378 22.9528C59.1862 22.1035 59.6632 20.9523 59.6641 19.7519C59.6632 18.5515 59.1862 17.4003 58.3378 16.551C57.4894 15.7018 56.3387 15.2238 55.1382 15.2218ZM72.6604 28.1658C67.8198 28.1658 64.3148 24.5743 64.3148 19.7508C64.3148 15.0042 67.8092 11.3284 72.6604 11.3284C77.535 11.3284 81.006 15.0383 81.006 19.7508C81.006 24.5402 77.4966 28.1658 72.6604 28.1658ZM72.6604 15.1674C71.446 15.1694 70.2818 15.6529 69.4235 16.5119C68.565 17.3709 68.0822 18.5354 68.0812 19.7498C68.0822 20.9642 68.565 22.1286 69.4235 22.9876C70.2818 23.8466 71.446 24.3301 72.6604 24.3322C73.8748 24.3301 75.0388 23.8466 75.8973 22.9876C76.7557 22.1286 77.2384 20.9642 77.2396 19.7498C77.2384 18.5354 76.7557 17.3709 75.8973 16.5119C75.0388 15.6529 73.8748 15.1694 72.6604 15.1674Z" fill="#717680"></path></g><defs><clipPath id="clip0_2856_17256"><rect width="106.667" height="32" fill="white" transform="translate(0.482422)"></rect></clipPath></defs></svg>