<svg xmlns="http://www.w3.org/2000/svg" width="151" height="32" viewBox="0 0 151 32" fill="none"><g clip-path="url(#clip0_2856_17255)"><path fill-rule="evenodd" clip-rule="evenodd" d="M25.5444 23.7932V31.7248L37.9555 23.7932V15.8623L25.5444 23.7932Z" fill="#717680"></path><path fill-rule="evenodd" clip-rule="evenodd" d="M13.1338 23.7932V31.7248L25.5448 23.7932V15.8623L13.1338 23.7932Z" fill="#717680"></path><path fill-rule="evenodd" clip-rule="evenodd" d="M0.722656 23.7932V31.7248L13.1337 23.7932V15.8623L0.722656 23.7932Z" fill="#717680"></path><path fill-rule="evenodd" clip-rule="evenodd" d="M37.9555 0L25.5444 7.93124V15.8625L37.9555 7.93124V0Z" fill="#717680"></path><path fill-rule="evenodd" clip-rule="evenodd" d="M25.5448 0L13.1338 7.93124V15.8625L25.5448 7.93124V0Z" fill="#717680"></path><path fill-rule="evenodd" clip-rule="evenodd" d="M13.1337 0L0.722656 7.93124V15.8625L13.1337 7.93124V0Z" fill="#717680"></path><path fill-rule="evenodd" clip-rule="evenodd" d="M64.346 16.3427V23.8559H61.1422V16.5923C61.1422 15.1199 60.4522 14.3958 59.1216 14.3958C58.1353 14.3958 57.2732 14.8204 56.534 15.6688V23.8559H53.3297V16.5923C53.3297 15.1199 52.6645 14.3958 51.3337 14.3958C50.3234 14.3958 49.4606 14.8452 48.7211 15.7441V23.8559H45.4927V11.8747H48.4996V12.9983C49.4853 12.1244 50.8657 11.6504 52.2703 11.6504C53.8967 11.6504 55.0793 12.1997 55.7698 13.2977C57.0757 12.1997 58.5053 11.6504 60.0576 11.6504C62.843 11.6504 64.346 13.2977 64.346 16.3427Z" fill="#717680"></path><path fill-rule="evenodd" clip-rule="evenodd" d="M76.04 17.8405C76.04 15.7191 74.5615 14.3958 72.8854 14.3958C71.801 14.3958 70.8894 14.8204 70.1747 15.619V20.1871C70.8894 20.9607 71.7516 21.36 72.7623 21.36C74.5862 21.36 76.04 20.0371 76.04 17.8405ZM78.4306 14.5958C78.9729 15.5443 79.2684 16.6173 79.2684 17.8405C79.2684 19.6877 78.5292 21.335 77.4199 22.4082C76.3111 23.4818 74.8323 24.1307 73.28 24.1307C72.0725 24.1307 71.0618 23.7564 70.224 23.0322V29.4474H66.9956V11.8749H70.1256V12.7986C71.0618 12.025 72.1216 11.6504 73.28 11.6504C75.3993 11.6504 77.2968 12.6987 78.4306 14.5958Z" fill="#717680"></path><path fill-rule="evenodd" clip-rule="evenodd" d="M89.6458 20.2118V15.5691C88.9314 14.7954 88.0446 14.3958 87.0093 14.3958C85.284 14.3958 83.8055 15.7439 83.8055 17.8903C83.8055 20.0369 85.2594 21.3598 86.9848 21.3598C88.0693 21.3598 88.956 20.9854 89.6458 20.2118ZM92.8251 23.8559H89.7982L89.7947 22.8326C88.9067 23.7063 87.8224 24.1306 86.5409 24.1306C84.4218 24.1306 82.524 23.0573 81.4149 21.1351C80.848 20.1869 80.5771 19.1133 80.5771 17.8903C80.5771 15.4692 81.8095 13.4473 83.6333 12.424C84.5449 11.9001 85.5309 11.6504 86.5655 11.6504C87.847 11.6504 88.9067 12.0745 89.77 12.8984V11.8747H92.8251V23.8559Z" fill="#717680"></path><path fill-rule="evenodd" clip-rule="evenodd" d="M98.5926 11.8747V12.9733C99.5537 11.9998 100.613 11.6504 102.437 11.6504V14.7452C102.215 14.6705 101.895 14.6455 101.55 14.6455C100.564 14.6455 99.529 15.1449 98.8146 16.0181V23.8559H95.5859V11.8747H98.5926Z" fill="#717680"></path><path fill-rule="evenodd" clip-rule="evenodd" d="M112.166 11.8748V14.5706H109.505V23.8559H106.301V14.5706H103.812V11.8748H106.301V7.88135H109.505V11.8748H112.166Z" fill="#717680"></path><mask id="mask0_2856_17255" style="mask-type:alpha" maskUnits="userSpaceOnUse" x="0" y="0" width="151" height="32"><path d="M0.722656 31.725H150.322V0.00683594H0.722656V31.725Z" fill="white"></path></mask><g mask="url(#mask0_2856_17255)"><path fill-rule="evenodd" clip-rule="evenodd" d="M114.057 23.8563H117.285V11.8751H114.057V23.8563ZM113.983 10.278H117.359V6.98291H113.983V10.278Z" fill="#717680"></path><path fill-rule="evenodd" clip-rule="evenodd" d="M130.857 21.4347C129.723 23.0823 127.801 24.1058 125.607 24.1058C123.29 24.1058 121.246 23.0072 120.111 21.1101C119.545 20.1618 119.25 19.0885 119.25 17.9153C119.25 15.5442 120.457 13.5226 122.404 12.449C123.364 11.9251 124.424 11.6504 125.583 11.6504C127.924 11.6504 129.674 12.5491 130.832 14.3709L128.367 15.9185C127.677 14.9202 126.766 14.4208 125.607 14.4208C123.734 14.4208 122.477 15.8935 122.477 17.9403C122.477 19.9871 123.685 21.335 125.583 21.335C126.79 21.335 127.751 20.836 128.491 19.8625L130.857 21.4347Z" fill="#717680"></path><path fill-rule="evenodd" clip-rule="evenodd" d="M132.975 23.8567H136.178V5.91016H132.975V23.8567Z" fill="#717680"></path><path fill-rule="evenodd" clip-rule="evenodd" d="M144.383 14.2933C145.886 14.2933 146.822 15.017 147.217 16.4898H141.327C141.77 15.0673 142.83 14.2933 144.383 14.2933ZM147.268 19.9262C146.505 20.8397 145.507 21.3071 144.308 21.3071C142.633 21.3071 141.45 20.3835 141.203 18.6366H150.297C150.322 18.4617 150.322 18.2871 150.322 18.1372C150.322 14.1686 147.882 11.6226 144.308 11.6226C143.075 11.6226 141.992 11.8972 141.031 12.4711C139.109 13.5944 138.048 15.5662 138.048 17.8874C138.048 19.585 138.689 21.1575 139.749 22.2557C140.809 23.379 142.46 24.0779 144.308 24.0779C146.478 24.0779 148.35 23.1293 149.533 21.4318L149.531 21.4303L147.268 19.9262Z" fill="#717680"></path></g></g><defs><clipPath id="clip0_2856_17255"><rect width="149.76" height="32" fill="white" transform="translate(0.722656)"></rect></clipPath></defs></svg>